<svg width="11" height="17" viewBox="0 0 11 17" fill="none" xmlns="http://www.w3.org/2000/svg">
<path d="M4.5 17V15H2.5V13H4.5V10.9C3.18333 10.6667 2.10433 10.0373 1.263 9.012C0.421 7.98733 0 6.8 0 5.45C0 3.93333 0.537667 2.646 1.613 1.588C2.68767 0.529333 3.98333 0 5.5 0C7.01667 0 8.31233 0.529333 9.387 1.588C10.4623 2.646 11 3.93333 11 5.45C11 6.8 10.5793 7.98733 9.738 9.012C8.896 10.0373 7.81667 10.6667 6.5 10.9V13H8.5V15H6.5V17H4.5ZM5.5 9C6.46667 9 7.29167 8.65833 7.975 7.975C8.65833 7.29167 9 6.46667 9 5.5C9 4.53333 8.65833 3.70833 7.975 3.025C7.29167 2.34167 6.46667 2 5.5 2C4.53333 2 3.70833 2.34167 3.025 3.025C2.34167 3.70833 2 4.53333 2 5.5C2 6.46667 2.34167 7.29167 3.025 7.975C3.70833 8.65833 4.53333 9 5.5 9Z" fill="black"/>
</svg>
