<svg width="140" height="140" viewBox="0 0 140 140" fill="none" xmlns="http://www.w3.org/2000/svg">
<path d="M115.938 70C121.978 70 126.875 65.1031 126.875 59.0625C126.875 53.0219 121.978 48.125 115.938 48.125C109.897 48.125 105 53.0219 105 59.0625C105 65.1031 109.897 70 115.938 70Z" fill="#CBC3BE" stroke="#8C786D" stroke-width="8.75" stroke-linecap="round" stroke-linejoin="round"/>
<path d="M24.0625 70C30.1031 70 35 65.1031 35 59.0625C35 53.0219 30.1031 48.125 24.0625 48.125C18.0219 48.125 13.125 53.0219 13.125 59.0625C13.125 65.1031 18.0219 70 24.0625 70Z" fill="#CBC3BE" stroke="#8C786D" stroke-width="8.75" stroke-linecap="round" stroke-linejoin="round"/>
<path d="M50.3125 43.75C56.3531 43.75 61.25 38.8531 61.25 32.8125C61.25 26.7719 56.3531 21.875 50.3125 21.875C44.2719 21.875 39.375 26.7719 39.375 32.8125C39.375 38.8531 44.2719 43.75 50.3125 43.75Z" fill="#CBC3BE" stroke="#8C786D" stroke-width="8.75" stroke-linecap="round" stroke-linejoin="round"/>
<path d="M89.6875 43.75C95.7281 43.75 100.625 38.8531 100.625 32.8125C100.625 26.7719 95.7281 21.875 89.6875 21.875C83.6469 21.875 78.75 26.7719 78.75 32.8125C78.75 38.8531 83.6469 43.75 89.6875 43.75Z" fill="#CBC3BE" stroke="#8C786D" stroke-width="8.75" stroke-linecap="round" stroke-linejoin="round"/>
<path d="M100.187 85.2578C94.7053 82.1876 90.6567 77.0778 88.9216 71.039C87.7415 66.932 85.2571 63.3204 81.8437 60.7496C78.4302 58.1788 74.273 56.7885 69.9997 56.7885C65.7265 56.7885 61.5692 58.1788 58.1558 60.7496C54.7423 63.3204 52.258 66.932 51.0778 71.039C49.3427 77.0778 45.2942 82.1876 39.8122 85.2578C36.4013 87.1161 33.7056 90.0565 32.1497 93.6155C30.5939 97.1746 30.2664 101.15 31.2188 104.916C32.1712 108.682 34.3494 112.024 37.4102 114.415C40.471 116.807 44.2404 118.112 48.1247 118.125C50.4714 118.126 52.795 117.662 54.9607 116.758C59.7282 114.781 64.8386 113.764 69.9997 113.764C75.1608 113.764 80.2713 114.781 85.0388 116.758C87.2044 117.662 89.528 118.126 91.8747 118.125C95.759 118.112 99.5285 116.807 102.589 114.415C105.65 112.024 107.828 108.682 108.781 104.916C109.733 101.15 109.406 97.1746 107.85 93.6155C106.294 90.0565 103.598 87.1161 100.187 85.2578Z" fill="#CBC3BE" stroke="#8C786D" stroke-width="8.75" stroke-linecap="round" stroke-linejoin="round"/>
</svg>
