<svg width="17" height="17" viewBox="0 0 17 17" fill="none" xmlns="http://www.w3.org/2000/svg">
<path d="M16.3335 0.5V6.5H14.3335V3.925L10.3585 7.875C10.6752 8.34167 10.9168 8.83733 11.0835 9.362C11.2502 9.88733 11.3335 10.4333 11.3335 11C11.3335 12.5333 10.8002 13.8333 9.7335 14.9C8.66683 15.9667 7.36683 16.5 5.8335 16.5C4.30016 16.5 3.00016 15.9667 1.9335 14.9C0.866829 13.8333 0.333496 12.5333 0.333496 11C0.333496 9.46667 0.866829 8.16667 1.9335 7.1C3.00016 6.03333 4.30016 5.5 5.8335 5.5C6.3835 5.5 6.92516 5.57933 7.4585 5.738C7.99183 5.896 8.4835 6.14167 8.9335 6.475L12.9085 2.5H10.3335V0.5H16.3335ZM5.8335 7.5C4.86683 7.5 4.04183 7.84167 3.3585 8.525C2.67516 9.20833 2.3335 10.0333 2.3335 11C2.3335 11.9667 2.67516 12.7917 3.3585 13.475C4.04183 14.1583 4.86683 14.5 5.8335 14.5C6.80016 14.5 7.62516 14.1583 8.3085 13.475C8.99183 12.7917 9.3335 11.9667 9.3335 11C9.3335 10.0333 8.99183 9.20833 8.3085 8.525C7.62516 7.84167 6.80016 7.5 5.8335 7.5Z" fill="black"/>
</svg>
