<svg width="42" height="41" viewBox="0 0 42 41" fill="none" xmlns="http://www.w3.org/2000/svg">
<rect x="0.859863" y="0.344772" width="40.2805" height="40.3105" rx="10" fill="#FFFEFA" fill-opacity="0.7"/>
<path d="M20.2403 11.3548C20.2403 11.62 20.3457 11.8743 20.5332 12.0619C20.7207 12.2494 20.9751 12.3548 21.2403 12.3548H27.7503L11.1003 29.0048C10.9365 29.1961 10.8509 29.4421 10.8606 29.6938C10.8703 29.9455 10.9747 30.1842 11.1528 30.3623C11.3309 30.5404 11.5696 30.6448 11.8213 30.6545C12.0729 30.6642 12.319 30.5786 12.5103 30.4148L29.1403 13.7848V20.2448C29.1403 20.51 29.2457 20.7643 29.4332 20.9519C29.6208 21.1394 29.8751 21.2448 30.1403 21.2448C30.4055 21.2448 30.6599 21.1394 30.8474 20.9519C31.035 20.7643 31.1403 20.51 31.1403 20.2448V11.2448C31.1403 11.0061 31.0455 10.7772 30.8767 10.6084C30.7079 10.4396 30.479 10.3448 30.2403 10.3448H21.2403C21.1082 10.3448 20.9773 10.371 20.8553 10.4218C20.7333 10.4727 20.6226 10.5473 20.5297 10.6412C20.4367 10.7351 20.3632 10.8465 20.3136 10.969C20.2639 11.0915 20.239 11.2226 20.2403 11.3548Z" fill="black"/>
</svg>
